<svg id="圖層_1" data-name="圖層 1" xmlns="http://www.w3.org/2000/svg" viewBox="0 0 200 200"><defs><style>.cls-1{fill:none;}.cls-2{fill:#fff;}</style></defs><rect class="cls-1" width="200" height="200"/><rect class="cls-1" width="20" height="20"/><rect class="cls-1" x="20.81288" width="20" height="20"/><rect class="cls-1" x="41.88601" y="0.00042" width="20" height="20"/><g id="组_11" data-name="组 11"><g id="椭圆_3" data-name="椭圆 3"><path class="cls-2" d="M13.07928,9.11542a2.44529,2.44529,0,1,1,2.44525-2.44533A2.44808,2.44808,0,0,1,13.07928,9.11542Zm0-3.90463a1.45934,1.45934,0,1,0,1.4593,1.4593A1.46093,1.46093,0,0,0,13.07928,5.21079Z"/></g><g id="椭圆_4" data-name="椭圆 4"><path class="cls-2" d="M6.75417,16.2899a2.16019,2.16019,0,1,1,2.16022-2.16015A2.16258,2.16258,0,0,1,6.75417,16.2899Zm0-3.33441a1.17423,1.17423,0,1,0,1.17427,1.17426A1.17555,1.17555,0,0,0,6.75417,12.95549Z"/></g><g id="椭圆_5" data-name="椭圆 5"><path class="cls-2" d="M9.67592,12.44829a2.16019,2.16019,0,1,1,2.16014-2.16015A2.16258,2.16258,0,0,1,9.67592,12.44829Zm0-3.33441a1.17423,1.17423,0,1,0,1.17419,1.17426A1.17556,1.17556,0,0,0,9.67592,9.11388Z"/></g><g id="椭圆_6" data-name="椭圆 6"><path class="cls-2" d="M12.76267,15.62964a1.49993,1.49993,0,1,1,1.49989-1.49989A1.5016,1.5016,0,0,1,12.76267,15.62964Zm0-2.01389a.514.514,0,1,0,.51393.514A.51453.51453,0,0,0,12.76267,13.61575Z"/></g><g id="椭圆_7" data-name="椭圆 7"><path class="cls-2" d="M5.98737,9.177A1.39336,1.39336,0,1,1,7.38072,7.78361,1.395,1.395,0,0,1,5.98737,9.177Zm0-1.80075a.4074.4074,0,1,0,.4074.40739A.40783.40783,0,0,0,5.98737,7.37622Z"/></g><g id="直线_3" data-name="直线 3"><rect class="cls-2" x="7.41738" y="11.67993" width="1.49625" height="0.98594" transform="matrix(0.63289, -0.77424, 0.77424, 0.63289, -6.42713, 10.79088)"/></g><g id="直线_4" data-name="直线 4"><rect class="cls-2" x="10.53487" y="8.12873" width="1.49642" height="0.98588" transform="translate(-2.52824 11.92145) rotate(-50.82145)"/></g><g id="直线_5" data-name="直线 5"><rect class="cls-2" x="7.10532" y="7.70562" width="0.9859" height="1.8321" transform="translate(-3.88599 9.04429) rotate(-50.71785)"/></g><g id="直线_6" data-name="直线 6"><rect class="cls-2" x="11.09248" y="11.54743" width="0.98599" height="1.83169" transform="translate(-5.27841 10.19037) rotate(-39.41439)"/></g><g id="椭圆_8" data-name="椭圆 8"><path class="cls-2" d="M10,19a9,9,0,1,1,9-9A9.01021,9.01021,0,0,1,10,19ZM10,1.98592A8.01408,8.01408,0,1,0,18.014,10,8.02313,8.02313,0,0,0,10,1.98592Z"/></g></g><g id="组_10" data-name="组 10"><g id="椭圆_2" data-name="椭圆 2"><path class="cls-2" d="M51.886,19.28811a9,9,0,1,1,9-9A9.01021,9.01021,0,0,1,51.886,19.28811Zm0-17.014a8.014,8.014,0,1,0,8.014,8.014A8.02307,8.02307,0,0,0,51.886,2.27406Z"/></g><g id="组_9" data-name="组 9"><g id="路径_14" data-name="路径 14"><path class="cls-2" d="M48.82327,6.21994h2.92322A7.46438,7.46438,0,0,1,53.04,6.301a1.77969,1.77969,0,0,1,.76231.33463,2.026,2.026,0,0,1,.56274.68129,1.9913,1.9913,0,0,1,.22359.95139,2.04228,2.04228,0,0,1-.27612,1.05044,1.78279,1.78279,0,0,1-.75031.7158,1.91626,1.91626,0,0,1,1.02793.7398,2.10091,2.10091,0,0,1,.36015,1.226,2.647,2.647,0,0,1-.2326,1.079,2.15185,2.15185,0,0,1-.63326.83885,1.98386,1.98386,0,0,1-.99041.38566q-.37065.042-1.78874.05552h-2.482ZM50.29989,7.5705V9.45529h.9664q.86436,0,1.07294-.02852a.93934.93934,0,0,0,.60025-.29112.91386.91386,0,0,0,.21309-.62876.95581.95581,0,0,0-.18608-.61375.82083.82083,0,0,0-.55673-.28662q-.22059-.02851-1.262-.02851Zm0,3.23535v2.1774H51.667a6.0022,6.0022,0,0,0,1.01142-.04952.90035.90035,0,0,0,.53723-.32564,1.07287,1.07287,0,0,0,.20708-.69028,1.157,1.157,0,0,0-.15906-.62126.926.926,0,0,0-.45769-.37216,4.56808,4.56808,0,0,0-1.30855-.117Z"/></g></g></g><g id="组_8" data-name="组 8"><g id="路径_13" data-name="路径 13"><path class="cls-2" d="M30.81292,4.48713s-4.48236,4.06819-4.48236,6.54422a4.48236,4.48236,0,0,0,8.96322,0C35.29378,8.55532,30.81292,4.48713,30.81292,4.48713Zm.75031,9.62649a2.17289,2.17289,0,0,1-1.6762-.39916,1.74827,1.74827,0,0,0,1.17349-.105c1.50062-.45019,1.74373-1.35057,2.23143-3.07478a1.9756,1.9756,0,0,1,.087.30012,2.66437,2.66437,0,0,1-1.81575,3.27286Z"/></g><g id="椭圆_1" data-name="椭圆 1"><path class="cls-2" d="M30.81288,19.00045a9,9,0,1,1,9-9A9.01021,9.01021,0,0,1,30.81288,19.00045Zm0-17.01412a8.01409,8.01409,0,1,0,8.014,8.01412A8.02314,8.02314,0,0,0,30.81288,1.98633Z"/></g></g></svg>