<svg id="圖層_1" data-name="圖層 1" xmlns="http://www.w3.org/2000/svg" viewBox="0 0 120.58897 71.70046"><defs><style>.cls-1{fill:#e5d9cc;}</style></defs><path class="cls-1" d="M74.4,107.6a35.85,35.85,0,1,1,35.7-39.5.45751.45751,0,0,1-.4.5c-.2,0-.5-.1-.5-.4h0a34.84439,34.84439,0,1,0-5.7,23,.48222.48222,0,0,1,.6-.1c.2.1.2.4.1.6a35.83771,35.83771,0,0,1-29.8,15.9" transform="translate(-14.04853 -35.89953)"/><path class="cls-1" d="M97.3,84.7a.34909.34909,0,0,1-.2-.1c0-.2-.1-.5-.1-.7V82.4c0-.2-.1-.3-.2-.5-.1-.1-.2-.3-.3-.3a.74937.74937,0,0,0-.5-.1,2.35355,2.35355,0,0,0-.8.2,2.09173,2.09173,0,0,0-.6.4,1.38029,1.38029,0,0,0-.3-.4c-.2-.1-.3-.2-.5-.2a1.26836,1.26836,0,0,0-.6.1c-.2.1-.3.2-.5.3h0v-.4a.09794.09794,0,0,0-.1-.1h-.1a10.50363,10.50363,0,0,1-1.3.2v.2c0,.1,0,0,.1,0l.2.1c.1,0,.1.1.2.1a.43976.43976,0,0,1,.1.5V84a1.26834,1.26834,0,0,1-.1.6.34914.34914,0,0,1-.2.1c-.1,0-.2.1-.3.1v.3h1.9v-.3a.36737.36737,0,0,1-.3-.1.34914.34914,0,0,1-.2-.1c0-.2-.1-.5-.1-.7V82.5c0-.1.1-.2.2-.3a.60123.60123,0,0,1,.4-.1.86433.86433,0,0,1,.6.3,2.91984,2.91984,0,0,1,.2.9V84a1.26846,1.26846,0,0,1-.1.6.34914.34914,0,0,1-.2.1c-.1,0-.2.1-.3.1v.3h2.1v-.3a.36737.36737,0,0,1-.3-.1.34914.34914,0,0,1-.2-.1c0-.2-.1-.5-.1-.7V82.4h0a.21508.21508,0,0,1,.2-.2.60128.60128,0,0,1,.4-.1c.5,0,.7.4.8,1.2V84a1.26846,1.26846,0,0,1-.1.6.34914.34914,0,0,1-.2.1c-.1,0-.2.1-.3.1v.3h2v-.3c0-.1-.1-.1-.3-.1" transform="translate(-14.04853 -35.89953)"/><path class="cls-1" d="M100.4,83.7c0-.1-.1-.1-.1-.2l-.1-.1-.1-.1-.1-.1-.1-.1-.2-.1-.1-.1-.1-.1h-.1l-.2-.1-.2-.1c-.1,0-.1-.1-.1-.2v-.2a.36739.36739,0,0,1,.1-.3c.1-.1.2-.1.4-.1a.68354.68354,0,0,1,.7.7c0,.1.1.1.2.1s.1,0,.1-.1a2.76883,2.76883,0,0,0-.1-.9,2.76862,2.76862,0,0,0-.9-.1,1.613,1.613,0,0,0-.9.3.75876.75876,0,0,0-.3,1.2h0a2.09184,2.09184,0,0,0,.6.4l.2.1.2.1.2.1c.1,0,.1.1.2.1l.1.1.1.1v.2c0,.1,0,.3-.2.3-.1.1-.2.1-.4.1a1.42132,1.42132,0,0,1-.6-.2.54994.54994,0,0,1-.3-.5.34915.34915,0,0,0-.2-.1H98v.5c0,.2.1.3.1.4a3.553,3.553,0,0,0,1,.2,1.39589,1.39589,0,0,0,.9-.3.90948.90948,0,0,0,.4-.8c0,.1,0,0,0-.1h0" transform="translate(-14.04853 -35.89953)"/><path class="cls-1" d="M105.5,81.7a1.01994,1.01994,0,0,0-.9-.2.60123.60123,0,0,0-.4.1c-.1,0-.2.1-.3.2h0v-.1h0V80.4a2.20185,2.20185,0,0,1,.1-.8v-.1h-.1l-.2.1c-.1,0-.2.1-.3.1s-.2.1-.4.1l-.5.1v.2h.1c.2,0,.4,0,.4.1V85c0,.1,0,0,.1.1h.3c.1,0,.1-.1.2-.1a.60122.60122,0,0,1,.4.1c.2,0,.4.1.6.1a1.6125,1.6125,0,0,0,1.3-.6,1.76032,1.76032,0,0,0,.6-1.3,1.88394,1.88394,0,0,0-.2-.8.90158.90158,0,0,0-.6-.6m-.4,2.4a.82222.82222,0,0,1-.6.4c-.2,0-.4,0-.5-.2a.75821.75821,0,0,1-.2-.4V82.3c-.1-.1,0-.3,0-.4a.75812.75812,0,0,1,.4-.2.66953.66953,0,0,1,.7.4,1.38857,1.38857,0,0,1,.2,1.1,2.92019,2.92019,0,0,1-.2.9" transform="translate(-14.04853 -35.89953)"/><path class="cls-1" d="M108.6,81.4a1.79252,1.79252,0,0,0-1.8,1.8,2.10614,2.10614,0,0,0,.5,1.3,1.94,1.94,0,0,0,2.6,0,1.87106,1.87106,0,0,0,0-2.6,1.901,1.901,0,0,0-1.3-.5m.7,2.9a.67521.67521,0,0,1-.6.4.752.752,0,0,1-.7-.5,2.01581,2.01581,0,0,1-.3-1.1,2.91992,2.91992,0,0,1,.2-.9.67522.67522,0,0,1,.6-.4,1.42132,1.42132,0,0,1,.6.2.86433.86433,0,0,1,.3.6,2.20185,2.20185,0,0,1,.1.8,2.91986,2.91986,0,0,1-.2.9" transform="translate(-14.04853 -35.89953)"/><path class="cls-1" d="M114.6,84.6h-.4a.09793.09793,0,0,1-.1-.1c0-.2-.1-.4-.1-.6V80.3a2.20185,2.20185,0,0,1,.1-.8v-.1h-.2l-.2.1c-.1,0-.2.1-.3.1s-.2.1-.4.1l-.5.1V80h.1c.3,0,.4,0,.4.1v1.5a1.26834,1.26834,0,0,0-.6-.1,1.61246,1.61246,0,0,0-1.3.6,1.9743,1.9743,0,0,0-.6,1.4,1.845,1.845,0,0,0,.5,1.2,1.60582,1.60582,0,0,0,1.1.5,1.13552,1.13552,0,0,0,.8-.3h0v.2l.3-.1h.9v-.3H114m-.8-.5c0,.1-.1.3-.2.3-.1.1-.3.2-.4.1a.66954.66954,0,0,1-.7-.4,1.3886,1.3886,0,0,1-.2-1.1,3.553,3.553,0,0,1,.2-1,.82222.82222,0,0,1,.6-.4.75592.75592,0,0,1,.4.1.21507.21507,0,0,1,.2.2c0,.1.1.1.1.2v2Z" transform="translate(-14.04853 -35.89953)"/><path class="cls-1" d="M118.5,81.5h-1.3v.2a.60123.60123,0,0,1,.4.1c.1,0,.1.1.1.2s0,.2-.1.2a4.41731,4.41731,0,0,1-.3.8,4.41656,4.41656,0,0,0-.3.8,12.797,12.797,0,0,0-.8-1.8h0a.34914.34914,0,0,1,.2-.1c.1,0,.2-.1.3-.1v-.2h-1.9v.2a.3674.3674,0,0,1,.3.1.21508.21508,0,0,1,.2.2c0,.1.1.1.1.2l1.2,2.7-.2.6a1.08139,1.08139,0,0,1-1.1.7c-.1.1-.2.2-.2.3s0,.2.1.2a.36737.36737,0,0,0,.3.1q.75,0,1.2-1.2l1.5-3.6c.1-.1.2-.2.3-.2s.2-.1.3-.1v-.2l-.3-.1" transform="translate(-14.04853 -35.89953)"/><path class="cls-1" d="M123.9,84.1l-.2.1-.1.1-.2.1-.2.1h-.4a1.1355,1.1355,0,0,1-.8-.3,2.04266,2.04266,0,0,1-.1-2,.48559.48559,0,0,1,.6-.3.51031.51031,0,0,1,.5.4c0,.1.1.2.2.3a.30971.30971,0,0,0,.2.1c.1,0,.2-.1.3-.2a.60123.60123,0,0,0,.1-.4,2.18589,2.18589,0,0,0-.5-.3,1.94945,1.94945,0,0,0-.8-.1,2.10622,2.10622,0,0,0-1.3.5,1.901,1.901,0,0,0-.5,1.3,2.10622,2.10622,0,0,0,.5,1.3,1.84506,1.84506,0,0,0,1.2.5,2.3535,2.3535,0,0,0,.8-.2,2.18112,2.18112,0,0,0,.5-.4c.2-.5.2-.5.2-.6h0V84" transform="translate(-14.04853 -35.89953)"/><path class="cls-1" d="M127.4,84.5c-.1,0-.1,0-.2-.1a.30972.30972,0,0,1-.1-.2V82.6a2.91992,2.91992,0,0,0-.2-.9,1.13554,1.13554,0,0,0-.8-.3,2.01579,2.01579,0,0,0-1.1.3,1.03489,1.03489,0,0,0-.5.7.75812.75812,0,0,0,.4.2.36737.36737,0,0,0,.3-.1c.1,0,.1-.1.1-.2,0-.2,0-.3.1-.4s.2-.1.4-.1c.1,0,.3.1.3.2a.60123.60123,0,0,1,.1.4v.4c0,.1,0,.1-.1.1l-.3.1-.4.1a.75812.75812,0,0,0-.4.2c-.1.1-.2.1-.3.2s-.2.2-.2.3c-.1.1-.1.2-.1.4a.71276.71276,0,0,0,.3.6.84378.84378,0,0,0,.7.2h.3c.1,0,.2-.1.3-.1l.2-.1.1-.1a.09794.09794,0,0,0,.1-.1c0,.1.1.2.2.3s.2.1.4.1a.60123.60123,0,0,0,.4-.1c.1-.1.2-.1.3-.2v-.3a.36742.36742,0,0,1-.3.1m-1.1-.3c0,.1-.1.2-.2.3s-.2.1-.4.1a.36739.36739,0,0,1-.3-.1c-.1-.1-.1-.2-.1-.4,0-.1,0-.2.1-.2,0-.1.1-.1.2-.2.1,0,.1-.1.2-.1l.3-.1.2-.1Z" transform="translate(-14.04853 -35.89953)"/><path class="cls-1" d="M129.9,81.6a.78074.78074,0,0,0-.4.4v-.5a.09794.09794,0,0,0-.1-.1h-.1c-.6.1-1.1.2-1.3.2v.2c0,.1,0,0,.1,0l.2.1c.1,0,.1.1.2.1a.7493.7493,0,0,1,.1.5V84a1.26823,1.26823,0,0,1-.1.6.34913.34913,0,0,1-.2.1c-.1,0-.2.1-.3.1v.3h2v-.3a.36738.36738,0,0,1-.3-.1.34914.34914,0,0,1-.2-.1c0-.2-.1-.5-.1-.7v-1a.74936.74936,0,0,1,.1-.5c.1-.2.2-.3.4-.3a.75806.75806,0,0,1,.4.2c.1.1.2.2.3.2.3,0,.4-.2.4-.7a.86433.86433,0,0,0-.6-.3,1.08749,1.08749,0,0,0-.5.1" transform="translate(-14.04853 -35.89953)"/><path class="cls-1" d="M134.3,82a.99837.99837,0,0,0-.5-.4,1.44524,1.44524,0,0,0-.7-.2,1.656,1.656,0,0,0-1.2.5,1.94,1.94,0,0,0,0,2.6,1.656,1.656,0,0,0,1.2.5,1.88389,1.88389,0,0,0,.8-.2,2.18156,2.18156,0,0,0,.5-.4V84l-.2.1-.1.1-.1.1-.2.1h-.4a1.42145,1.42145,0,0,1-.6-.2.99835.99835,0,0,1-.4-.5,1.26821,1.26821,0,0,1-.1-.6m.1.1h2.1c0-.1.1-.1.1-.2a.90143.90143,0,0,0-.1-.5c-.1-.2-.2-.3-.3-.5m-.5.9h-1.3v-.3c0-.1.1-.2.1-.3.1-.1.1-.2.2-.3s.2-.1.4-.1a.54994.54994,0,0,1,.5.3,1.42122,1.42122,0,0,1,.2.6.09792.09792,0,0,1-.1.1" transform="translate(-14.04853 -35.89953)"/><path class="cls-1" d="M134.3,76a.44569.44569,0,0,0,.3-.6.55.55,0,0,0-.5-.3c-4.5,1.1-9.2,1-13.8.9-5.4-.1-10.9-.5-16.3-.8a134.68034,134.68034,0,0,0-14.2-.4,49.05179,49.05179,0,0,0-6.7.8,17.9597,17.9597,0,0,0-.2-2.2,7.79351,7.79351,0,0,0,3-2.1,1.72729,1.72729,0,0,0-.2-2.4c-.1-.1-.2-.2-.3-.2a2.15638,2.15638,0,0,0-2.9,1,4.78132,4.78132,0,0,0-.5,3.1A25.32986,25.32986,0,0,1,78.4,74a2.11878,2.11878,0,0,1-2.7-1.3c-1.2-2.1-4.6.2-6,1.4,1.1-3.2-.9-3.2-3.1-1.9-.4.2-.6.3-.6-.3-1.2-6.8-18.4-1-22.7,0a79.07443,79.07443,0,0,1-21.6,3.3c-2.2.1-4.4,0-6.7,0-.7,0-1.1.3-.9.9s.5.4.9.3a113.78185,113.78185,0,0,0,22.6-2c5.3-1.5,10.5-2.9,15.9-4.1A21.73436,21.73436,0,0,1,63,70c2.9.6,2.1,3.2.3,4.8-.4.4-1,.9-.4,1.4s1-.2,1.3-.6a11.0829,11.0829,0,0,1,4-3.1c.5-.3.8,0,.6.5a14.16078,14.16078,0,0,1-.7,2.2.71015.71015,0,0,0,.2,1.1c.4.4.7-.1.9-.3a5.73023,5.73023,0,0,0,1.1-1.1,10.59166,10.59166,0,0,1,1.2-1c.4-.3.9-.5,1.3-.8a1.91293,1.91293,0,0,1,1.5-.4c.4.1.7.7,1,1a2.54938,2.54938,0,0,0,3.2,1h0a25.33154,25.33154,0,0,0,3.6-1.2V74c0,.4.1.9.1,1.5-.5.2-1.1.3-1.6.5-1,.4-2.3,1.1-1.9,2.4a1.93124,1.93124,0,0,0,2.4,1.1.09793.09793,0,0,0,.1-.1A3.34371,3.34371,0,0,0,83,76.3l.2-.1a27.37979,27.37979,0,0,1,5-.7,94.83119,94.83119,0,0,1,14.1.2c5.5.3,10.9.7,16.4.9a48.1419,48.1419,0,0,0,15.6-.6M83.4,70a1.23669,1.23669,0,0,1,1.4-.4.76251.76251,0,0,1,.2,1.3,5.95667,5.95667,0,0,1-2.1,1.4h-.1a3.2215,3.2215,0,0,1,.6-2.3m-3.1,9.1a.77283.77283,0,0,1-.8-.7c0-.5.6-.7,1-.9a8.33089,8.33089,0,0,1,1.5-.4c-.1,1.1-.6,2.1-1.7,2" transform="translate(-14.04853 -35.89953)"/></svg>