<svg id="圖層_1" data-name="圖層 1" xmlns="http://www.w3.org/2000/svg" viewBox="0 0 97.12415 14.88118"><defs><style>.cls-1{fill:#49656b;}</style></defs><path class="cls-1" d="M86.57,74a.7.7,0,0,1,.42.13.75.75,0,0,1,.26.33,1.44992,1.44992,0,0,1,.47-.32,1.43007,1.43007,0,0,1,.61-.14.72.72,0,0,1,.4.11.80992.80992,0,0,1,.26.29,1.78984,1.78984,0,0,1,.13.41,2.45019,2.45019,0,0,1,0,.48v.69a2.65979,2.65979,0,0,0,0,.59.44221.44221,0,0,0,.18.1l.21.05v.09a.37981.37981,0,0,1,0,.13h-.34a4.16117,4.16117,0,0,0-.44,0,4.0018,4.0018,0,0,0-.45,0h-.34v-.22a.99986.99986,0,0,0,.23-.05.186.186,0,0,0,.17-.1,2.07,2.07,0,0,0,0-.46V75.4q0-1-.6-1a.56.56,0,0,0-.35.11.42.42,0,0,0-.17.2v.06h0a3.9993,3.9993,0,0,1,0,.41V76a2.61045,2.61045,0,0,0,0,.56.44221.44221,0,0,0,.18.1l.22.05v.09a.37981.37981,0,0,1,0,.13h-.34a4.85121,4.85121,0,0,0-.88,0h-.35a.24981.24981,0,0,1,0-.12v-.1a.99986.99986,0,0,0,.23-.05.17344.17344,0,0,0,.17-.1,2.14008,2.14008,0,0,0,0-.48v-.63a1.39017,1.39017,0,0,0-.15-.74.49.49,0,0,0-.44-.24.6.6,0,0,0-.36.12.31.31,0,0,0-.16.25v1.13a2.65979,2.65979,0,0,0,0,.59.45058.45058,0,0,0,.17.1l.21.05v.09a.2302.2302,0,0,1,0,.13h-.33a4.9991,4.9991,0,0,0-.89,0h-.35a.24985.24985,0,0,1,0-.12v-.1a1.1297,1.1297,0,0,0,.24-.05.186.186,0,0,0,.17-.1,2.14008,2.14008,0,0,0,0-.48V75a.6.6,0,0,0-.11-.42.24.24,0,0,0-.14-.1h-.23v-.2a8.22271,8.22271,0,0,0,1-.2h0l.05.05c.05.05,0,0,0,.07v.24h0a1.50006,1.50006,0,0,1,.4-.28,1.11,1.11,0,0,1,.49-.12" transform="translate(-22.29585 -63.42)"/><path class="cls-1" d="M91,74a2.52,2.52,0,0,1,.75.11,4.64913,4.64913,0,0,1,.07.74h-.24a.79.79,0,0,0-.19-.4.53.53,0,0,0-.39-.16.47.47,0,0,0-.3.09.3.3,0,0,0-.1.24.47015.47015,0,0,0,0,.17.53024.53024,0,0,0,.12.14,1.10085,1.10085,0,0,0,.14.11l.19.1h.16l.1.06.11.06.11.08.1.08a.3.3,0,0,1,.1.09l.07.1a.25.25,0,0,1,.07.12v.12a.761.761,0,0,1,0,.15.77.77,0,0,1-.31.65,1.21,1.21,0,0,1-.76.24,2.18,2.18,0,0,1-.83-.18.88164.88164,0,0,0-.07-.37,3.46544,3.46544,0,0,1,0-.38A.16.16,0,0,1,90,76h.16a.72.72,0,0,0,.69.62.42.42,0,0,0,.3-.1.32.32,0,0,0,.12-.27.49982.49982,0,0,0,0-.12.3.3,0,0,0-.06-.11L91.13,76a.31006.31006,0,0,0-.12-.09l-.13-.08-.16-.08-.17-.09a1.71983,1.71983,0,0,1-.45-.35.72005.72005,0,0,1-.17-.48.74.74,0,0,1,.31-.62A1.28,1.28,0,0,1,91,74" transform="translate(-22.29585 -63.42)"/><path class="cls-1" d="M95.28,74a1.31993,1.31993,0,0,1,.72.21,1.42994,1.42994,0,0,1,.48.53,1.40989,1.40989,0,0,1,.17.66,1.5,1.5,0,0,1-.45,1.1,1.41,1.41,0,0,1-1,.46,1.64981,1.64981,0,0,1-.47,0,1.64928,1.64928,0,0,0-.3-.05.51.51,0,0,0-.17.05h-.23a.06856.06856,0,0,1-.07-.07.82867.82867,0,0,1,0-.12V73.32a2.9989,2.9989,0,0,0,0-.45c0-.07-.14-.11-.34-.11h-.06v-.21h.38l.3-.06.21-.07.19-.07h0a.10989.10989,0,0,1,0,.07,2.25027,2.25027,0,0,0-.07.62v1h0v.06h0A1.25012,1.25012,0,0,1,95,74a1.00013,1.00013,0,0,1,.33-.07m-.14.36a.50006.50006,0,0,0-.35.12.42.42,0,0,0-.14.3v1.4a.41.41,0,0,0,.17.35.71.71,0,0,0,.41.12.55.55,0,0,0,.5-.31,1.49,1.49,0,0,0,.17-.75,1.67,1.67,0,0,0-.2-.9.62.62,0,0,0-.56-.33" transform="translate(-22.29585 -63.42)"/><path class="cls-1" d="M98.48,74a1.41,1.41,0,0,1,1,.44,1.38994,1.38994,0,0,1,.43,1,1.46,1.46,0,0,1-.42,1,1.37779,1.37779,0,0,1-2,0,1.5,1.5,0,0,1,0-2.1,1.4,1.4,0,0,1,1-.43m-.08.31a.52.52,0,0,0-.47.3,1.37007,1.37007,0,0,0-.17.72,2.00014,2.00014,0,0,0,.21.93.64.64,0,0,0,.58.39.53.53,0,0,0,.48-.3,1.46014,1.46014,0,0,0,.17-.71,2.61011,2.61011,0,0,0-.08-.64,1.18994,1.18994,0,0,0-.28-.49.59.59,0,0,0-.44-.2" transform="translate(-22.29585 -63.42)"/><path class="cls-1" d="M101.75,74a1.08983,1.08983,0,0,1,.47.09v-.72a2.889,2.889,0,0,0,0-.45c0-.07-.14-.11-.34-.11h0V72.6h.38l.3-.06.21-.07.13-.05h.05a.07.07,0,0,1,.06,0,.1898.1898,0,0,1,0,.07,2.77068,2.77068,0,0,0-.06.62v2.9a2.09056,2.09056,0,0,0,0,.48.08747.08747,0,0,0,.06.08.27.27,0,0,0,.12,0h.19v.21h-.75l-.27.06v-.25h0a1.08,1.08,0,0,1-.67.24,1.23,1.23,0,0,1-.91-.39,1.33994,1.33994,0,0,1-.39-1,1.61,1.61,0,0,1,.44-1.12,1.45005,1.45005,0,0,1,1-.46m-.06.32a.56.56,0,0,0-.51.29,1.55,1.55,0,0,0-.18.8,1.65,1.65,0,0,0,.2.87.64.64,0,0,0,.56.32.52.52,0,0,0,.36-.12.36.36,0,0,0,.14-.29v-1.3a.31027.31027,0,0,0,0-.13.71042.71042,0,0,0-.07-.16.54.54,0,0,0-.18-.14.7902.7902,0,0,0-.29,0" transform="translate(-22.29585 -63.42)"/><path class="cls-1" d="M104.35,74h.74v.21a.79955.79955,0,0,0-.2,0,.15669.15669,0,0,0-.15.11h0a14.14,14.14,0,0,0,.6,1.5,5.5891,5.5891,0,0,1,.26-.65l.23-.61a.78934.78934,0,0,0,0-.2.21.21,0,0,0-.11-.16.5.5,0,0,0-.31-.08v-.1a.27029.27029,0,0,1,0-.11h1.34a.31011.31011,0,0,1,0,.11v.1a.70987.70987,0,0,0-.27.07.38.38,0,0,0-.22.19l-1.18,2.92q-.41,1-1,1a.34.34,0,0,1-.26-.09.29.29,0,0,1-.09-.21.3.3,0,0,1,.12-.26.86.86,0,0,0,.89-.54c.1-.26.16-.41.17-.45l-.91-2.2a.84005.84005,0,0,0-.08-.15.36.36,0,0,0-.19-.15.75982.75982,0,0,0-.21,0v-.09a.21981.21981,0,0,1,0-.12h.81" transform="translate(-22.29585 -63.42)"/><path class="cls-1" d="M109.78,74a1.44,1.44,0,0,1,.61.12,1.1402,1.1402,0,0,1,.39.25.78.78,0,0,1-.08.37.23.23,0,0,1-.22.15.32.32,0,0,1-.2-.06.82982.82982,0,0,1-.15-.22.46.46,0,0,0-.43-.3.48.48,0,0,0-.44.28,1.43007,1.43007,0,0,0-.17.73,1.38,1.38,0,0,0,.24.88.75.75,0,0,0,.61.28h.19a.76.76,0,0,0,.16,0h.14l.12-.06.09-.06.13-.09h0a.19023.19023,0,0,1,0,.07.21.21,0,0,1,0,.12,1.10987,1.10987,0,0,1-.38.36,1.17,1.17,0,0,1-.64.18,1.29,1.29,0,0,1-1-.43,1.49,1.49,0,0,1-.41-1,1.51,1.51,0,0,1,.39-1,1.3,1.3,0,0,1,1-.44" transform="translate(-22.29585 -63.42)"/><path class="cls-1" d="M112.56,74a.78.78,0,0,1,.6.22,1,1,0,0,1,.2.73v1.3a.28.28,0,0,0,.06.2.19.19,0,0,0,.16.07.43.43,0,0,0,.21-.08v.07a.37.37,0,0,1,0,.2,1.5698,1.5698,0,0,1-.25.16.64.64,0,0,1-.31.09.44.44,0,0,1-.29-.12.47.47,0,0,1-.19-.24h0l-.12.09-.16.11-.22.09a1.14984,1.14984,0,0,1-.26,0,.79.79,0,0,1-.53-.18.64.64,0,0,1-.2-.5.59992.59992,0,0,1,.08-.29.5799.5799,0,0,1,.17-.23.99985.99985,0,0,1,.28-.17l.3-.13.32-.11.28-.08a.11.11,0,0,0,.06-.11v-.36a.57.57,0,0,0-.11-.36.31.31,0,0,0-.27-.13.4.4,0,0,0-.31.12.51.51,0,0,0-.11.34.23.23,0,0,1-.09.2.43.43,0,0,1-.22.06.36.36,0,0,1-.34-.16.75.75,0,0,1,.42-.59,1.64,1.64,0,0,1,.89-.28m-.29,2.53a.49.49,0,0,0,.3-.09.25.25,0,0,0,.13-.21v-.67l-.19.06-.23.08-.18.1a.34.34,0,0,0-.15.14.45.45,0,0,0,.06.5.36.36,0,0,0,.26.09" transform="translate(-22.29585 -63.42)"/><path class="cls-1" d="M116,74a.67.67,0,0,1,.53.22c0,.37-.11.56-.31.56a.36.36,0,0,1-.25-.13.4.4,0,0,0-.28-.13.35.35,0,0,0-.32.21.92.92,0,0,0-.11.43v.82a2.65979,2.65979,0,0,0,0,.59.36553.36553,0,0,0,.17.1l.21.05v.09a.37981.37981,0,0,1,0,.13h-.34a4.00137,4.00137,0,0,0-.44,0,4.23232,4.23232,0,0,0-.45,0h-.34v-.22a.99934.99934,0,0,0,.23-.05c.11,0,.17-.07.17-.1a2.14008,2.14008,0,0,0,0-.48V75a.61.61,0,0,0-.1-.42.31008.31008,0,0,0-.15-.1.55973.55973,0,0,0-.15,0H114v-.2a8.94117,8.94117,0,0,0,1-.2h0v.05a.11.11,0,0,1,0,.07v.09a.68094.68094,0,0,1,0,.14.54219.54219,0,0,1,0,.08,1.35007,1.35007,0,0,1,.32-.31A.67.67,0,0,1,116,74" transform="translate(-22.29585 -63.42)"/><path class="cls-1" d="M118.23,74a1.07991,1.07991,0,0,1,.54.13,1.06,1.06,0,0,1,.38.31,1.27028,1.27028,0,0,1,.2.38,1.15022,1.15022,0,0,1,.07.39v.18a.33.33,0,0,1-.2,0h-1.55a1.4802,1.4802,0,0,0,.08.46.91.91,0,0,0,.29.39.76.76,0,0,0,.49.16h.19a.76.76,0,0,0,.16,0h.14l.12-.06.09-.06.13-.09h0a.19023.19023,0,0,1,0,.07.21.21,0,0,1,0,.12,1.1099,1.1099,0,0,1-.38.36,1.19,1.19,0,0,1-.64.18,1.3,1.3,0,0,1-1-.43,1.44,1.44,0,0,1-.41-1,1.56,1.56,0,0,1,.38-1.08,1.23,1.23,0,0,1,1-.42m0,.31a.44.44,0,0,0-.27.09.55991.55991,0,0,0-.19.22,1.63057,1.63057,0,0,0-.1.25,1.76054,1.76054,0,0,0,0,.19h1.05s.06,0,.06-.1a.89.89,0,0,0-.15-.47.48.48,0,0,0-.41-.23" transform="translate(-22.29585 -63.42)"/><path class="cls-1" d="M119,68.72a43.54017,43.54017,0,0,1-11.11.76c-4.38-.09-8.75-.4-13.12-.66a101.21819,101.21819,0,0,0-11.42-.3,29.26927,29.26927,0,0,0-5.42.71c0-.59-.06-1.18-.11-1.77a6.26,6.26,0,0,0,2.4-1.7,1.44,1.44,0,0,0-.45-2.18,1.82,1.82,0,0,0-2.37.84A4.18,4.18,0,0,0,76.94,67,19.90957,19.90957,0,0,1,74,68a1.72,1.72,0,0,1-2.17-1.08c-1-1.71-3.66.15-4.79,1.18.9-2.63-.71-2.63-2.5-1.55-.32.21-.46.24-.49-.22-.92-5.61-14.78-.86-18.3,0A62.59009,62.59009,0,0,1,28.44,69c-1.79.06-3.58,0-5.37,0-.58,0-.84.26-.76.78s.42.32.73.28a89.56034,89.56034,0,0,0,18.19-1.65c4.23-1.26,8.49-2.4,12.79-3.36a16.18986,16.18986,0,0,1,7.64-.23c2.36.53,1.66,2.6.24,3.9-.31.36-.8.76-.29,1.2s.77-.18,1.06-.51a8.39,8.39,0,0,1,3.18-2.54c.37-.23.67,0,.45.38a8.13014,8.13014,0,0,1-.58,1.81.7.7,0,0,0,.13.94c.34.29.51-.07.73-.23a9.79867,9.79867,0,0,0,.9-.92,10.06849,10.06849,0,0,1,1-.85,7.8396,7.8396,0,0,1,1.09-.62,1.65,1.65,0,0,1,1.18-.33c.36.1.59.56.77.85a2.08,2.08,0,0,0,2.56.85h0a22.89032,22.89032,0,0,0,2.92-1v.41c0,.3.07.76.07,1.24-.44.14-.87.28-1.29.45-.84.34-1.87.88-1.5,2a1.5,1.5,0,0,0,2.07.84,2.93,2.93,0,0,0,1.48-2.66L78,70a24.43071,24.43071,0,0,1,4.06-.61,81.11989,81.11989,0,0,1,11.35.14c4.4.25,8.8.57,13.21.7,4.14.12,8.45.22,12.51-.76.49-.12.28-.89-.21-.77M78.19,64.6a1,1,0,0,1,1.13-.33c.5.25.45.74.14,1.11a5.54,5.54,0,0,1-1.68,1.18h-.07a2.66,2.66,0,0,1,.48-2m-2.48,7.48a.69.69,0,0,1-.67-.61c0-.43.52-.6.83-.74a12.45038,12.45038,0,0,1,1.21-.44c-.11.95-.45,1.8-1.37,1.79" transform="translate(-22.29585 -63.42)"/></svg>